# xmcd
# 
# Track frame offsets:
#     182
#     16692
#     37335
#     56525
#     82777
#     102570
#     129142
#     146862
#     177615
#     195812
#     215450
#     238210
#     269645
# 
# Disc length: 3898
# 
# Revision: 7
# Processed by: cddbd v1.5.2PL0 Copyright (c) Steve Scherf et al.
# Submitted via: BonkEnc v1.0
# 
DISCID=b90f380d
DTITLE=The Band - The Last Waltz [CD 1)
DYEAR=1978
DGENRE=Rock
TTITLE0=Theme From The Last Waltz
TTITLE1=Up On Cripple Creek
TTITLE2=Who Do You Love? (with Ronnie Hawkins)
TTITLE3=Helpless (with Neil Young and Joni Mitchell)
TTITLE4=Stagefright
TTITLE5=Coyote (with Joni Mitchell and Dr. John)
TTITLE6=Dry Your Eyes (with Neil Diamond)
TTITLE7=It Makes No Difference
TTITLE8=Such A Night (with Dr. John)
TTITLE9=The Night They Drove Old Dixie Down
TTITLE10=Mystery Train (with Paul Butterfield)
TTITLE11=Mannish Boy (with Muddy Waters, Paul Butterfield, Bob Margolin and Joe "Pine Top" Perkins)
TTITLE12=Further On Up The Road (with Eric Clapton)
EXTD=YEAR: 1978
EXTT0=
EXTT1=
EXTT2=
EXTT3=
EXTT4=
EXTT5=
EXTT6=
EXTT7=
EXTT8=
EXTT9=
EXTT10=
EXTT11=
EXTT12=
PLAYORDER=
